<mxfile host="app.diagrams.net" agent="Mozilla/5.0 (Windows NT 10.0; Win64; x64) AppleWebKit/537.36 (KHTML, like Gecko) Chrome/139.0.0.0 Safari/537.36" version="27.1.6">
  <diagram name="Page-1" id="QtWLcJ3j0iUQaFtoT30D">
    <mxGraphModel dx="1261" dy="813" grid="1" gridSize="10" guides="1" tooltips="1" connect="1" arrows="1" fold="1" page="1" pageScale="1" pageWidth="827" pageHeight="1169" math="0" shadow="0">
      <root>
        <mxCell id="0" />
        <mxCell id="1" parent="0" />
        <mxCell id="vEz5Iz9t6w_KnctAjCwy-11" style="edgeStyle=orthogonalEdgeStyle;rounded=0;orthogonalLoop=1;jettySize=auto;html=1;exitX=0.5;exitY=1;exitDx=0;exitDy=0;exitPerimeter=0;entryX=0.5;entryY=0;entryDx=0;entryDy=0;fontFamily=Times New Roman;fontSize=16;" edge="1" parent="1" source="vEz5Iz9t6w_KnctAjCwy-1" target="vEz5Iz9t6w_KnctAjCwy-2">
          <mxGeometry relative="1" as="geometry" />
        </mxCell>
        <mxCell id="vEz5Iz9t6w_KnctAjCwy-1" value="Start" style="strokeWidth=2;html=1;shape=mxgraph.flowchart.start_2;whiteSpace=wrap;fontFamily=Times New Roman;fontSize=16;" vertex="1" parent="1">
          <mxGeometry x="97.5" y="50" width="70" height="70" as="geometry" />
        </mxCell>
        <mxCell id="vEz5Iz9t6w_KnctAjCwy-12" style="edgeStyle=orthogonalEdgeStyle;rounded=0;orthogonalLoop=1;jettySize=auto;html=1;exitX=0.5;exitY=1;exitDx=0;exitDy=0;entryX=0.5;entryY=0;entryDx=0;entryDy=0;fontFamily=Times New Roman;fontSize=16;" edge="1" parent="1" source="vEz5Iz9t6w_KnctAjCwy-2" target="vEz5Iz9t6w_KnctAjCwy-3">
          <mxGeometry relative="1" as="geometry" />
        </mxCell>
        <mxCell id="vEz5Iz9t6w_KnctAjCwy-2" value="Literature Review" style="rounded=1;whiteSpace=wrap;html=1;absoluteArcSize=1;arcSize=14;strokeWidth=2;fontFamily=Times New Roman;fontSize=16;" vertex="1" parent="1">
          <mxGeometry x="40" y="150" width="185" height="60" as="geometry" />
        </mxCell>
        <mxCell id="vEz5Iz9t6w_KnctAjCwy-13" style="edgeStyle=orthogonalEdgeStyle;rounded=0;orthogonalLoop=1;jettySize=auto;html=1;exitX=0.5;exitY=1;exitDx=0;exitDy=0;entryX=0.5;entryY=0;entryDx=0;entryDy=0;fontFamily=Times New Roman;fontSize=16;" edge="1" parent="1" source="vEz5Iz9t6w_KnctAjCwy-3" target="vEz5Iz9t6w_KnctAjCwy-4">
          <mxGeometry relative="1" as="geometry" />
        </mxCell>
        <mxCell id="vEz5Iz9t6w_KnctAjCwy-3" value="Software and Hardware Preparation" style="rounded=1;whiteSpace=wrap;html=1;absoluteArcSize=1;arcSize=14;strokeWidth=2;fontFamily=Times New Roman;fontSize=16;" vertex="1" parent="1">
          <mxGeometry x="40" y="240" width="185" height="60" as="geometry" />
        </mxCell>
        <mxCell id="vEz5Iz9t6w_KnctAjCwy-14" style="edgeStyle=orthogonalEdgeStyle;rounded=0;orthogonalLoop=1;jettySize=auto;html=1;exitX=0.5;exitY=1;exitDx=0;exitDy=0;entryX=0.5;entryY=0;entryDx=0;entryDy=0;fontFamily=Times New Roman;fontSize=16;" edge="1" parent="1" source="vEz5Iz9t6w_KnctAjCwy-4" target="vEz5Iz9t6w_KnctAjCwy-5">
          <mxGeometry relative="1" as="geometry" />
        </mxCell>
        <mxCell id="vEz5Iz9t6w_KnctAjCwy-4" value="High-Level Design" style="rounded=1;whiteSpace=wrap;html=1;absoluteArcSize=1;arcSize=14;strokeWidth=2;fontFamily=Times New Roman;fontSize=16;" vertex="1" parent="1">
          <mxGeometry x="40" y="330" width="185" height="60" as="geometry" />
        </mxCell>
        <mxCell id="vEz5Iz9t6w_KnctAjCwy-5" value="Program Verification" style="rounded=1;whiteSpace=wrap;html=1;absoluteArcSize=1;arcSize=14;strokeWidth=2;fontFamily=Times New Roman;fontSize=16;" vertex="1" parent="1">
          <mxGeometry x="40" y="430" width="185" height="60" as="geometry" />
        </mxCell>
        <mxCell id="vEz5Iz9t6w_KnctAjCwy-19" value="NO" style="edgeStyle=orthogonalEdgeStyle;rounded=0;orthogonalLoop=1;jettySize=auto;html=1;exitX=0;exitY=0.5;exitDx=0;exitDy=0;exitPerimeter=0;entryX=1;entryY=0.5;entryDx=0;entryDy=0;fontFamily=Times New Roman;fontSize=16;" edge="1" parent="1" source="vEz5Iz9t6w_KnctAjCwy-6" target="vEz5Iz9t6w_KnctAjCwy-4">
          <mxGeometry relative="1" as="geometry" />
        </mxCell>
        <mxCell id="vEz5Iz9t6w_KnctAjCwy-20" value="YES" style="edgeStyle=orthogonalEdgeStyle;rounded=0;orthogonalLoop=1;jettySize=auto;html=1;exitX=0.5;exitY=1;exitDx=0;exitDy=0;exitPerimeter=0;entryX=0.5;entryY=0;entryDx=0;entryDy=0;fontFamily=Times New Roman;fontSize=16;" edge="1" parent="1" source="vEz5Iz9t6w_KnctAjCwy-6" target="vEz5Iz9t6w_KnctAjCwy-7">
          <mxGeometry relative="1" as="geometry" />
        </mxCell>
        <mxCell id="vEz5Iz9t6w_KnctAjCwy-6" value="Works Successfully" style="strokeWidth=2;html=1;shape=mxgraph.flowchart.decision;whiteSpace=wrap;fontFamily=Times New Roman;fontSize=16;" vertex="1" parent="1">
          <mxGeometry x="334.75" y="140" width="120" height="110" as="geometry" />
        </mxCell>
        <mxCell id="vEz5Iz9t6w_KnctAjCwy-21" style="edgeStyle=orthogonalEdgeStyle;rounded=0;orthogonalLoop=1;jettySize=auto;html=1;exitX=0.5;exitY=1;exitDx=0;exitDy=0;entryX=0.5;entryY=0;entryDx=0;entryDy=0;fontFamily=Times New Roman;fontSize=16;" edge="1" parent="1" source="vEz5Iz9t6w_KnctAjCwy-7" target="vEz5Iz9t6w_KnctAjCwy-8">
          <mxGeometry relative="1" as="geometry" />
        </mxCell>
        <mxCell id="vEz5Iz9t6w_KnctAjCwy-7" value="Data Collection and Analysis" style="rounded=1;whiteSpace=wrap;html=1;absoluteArcSize=1;arcSize=14;strokeWidth=2;fontFamily=Times New Roman;fontSize=16;" vertex="1" parent="1">
          <mxGeometry x="302.25" y="300" width="185" height="60" as="geometry" />
        </mxCell>
        <mxCell id="vEz5Iz9t6w_KnctAjCwy-8" value="Conclusion and Making Report" style="rounded=1;whiteSpace=wrap;html=1;absoluteArcSize=1;arcSize=14;strokeWidth=2;fontFamily=Times New Roman;fontSize=16;" vertex="1" parent="1">
          <mxGeometry x="302.25" y="390" width="185" height="60" as="geometry" />
        </mxCell>
        <mxCell id="vEz5Iz9t6w_KnctAjCwy-10" value="End" style="strokeWidth=2;html=1;shape=mxgraph.flowchart.terminator;whiteSpace=wrap;fontFamily=Times New Roman;fontSize=16;" vertex="1" parent="1">
          <mxGeometry x="344.75" y="480" width="100" height="50" as="geometry" />
        </mxCell>
        <mxCell id="vEz5Iz9t6w_KnctAjCwy-15" value="" style="verticalLabelPosition=bottom;verticalAlign=top;html=1;shape=mxgraph.flowchart.on-page_reference;fontFamily=Times New Roman;fontSize=16;" vertex="1" parent="1">
          <mxGeometry x="113.75" y="510" width="37.5" height="37.5" as="geometry" />
        </mxCell>
        <mxCell id="vEz5Iz9t6w_KnctAjCwy-16" style="edgeStyle=orthogonalEdgeStyle;rounded=0;orthogonalLoop=1;jettySize=auto;html=1;exitX=0.5;exitY=1;exitDx=0;exitDy=0;entryX=0.5;entryY=0;entryDx=0;entryDy=0;entryPerimeter=0;fontFamily=Times New Roman;fontSize=16;" edge="1" parent="1" source="vEz5Iz9t6w_KnctAjCwy-5" target="vEz5Iz9t6w_KnctAjCwy-15">
          <mxGeometry relative="1" as="geometry" />
        </mxCell>
        <mxCell id="vEz5Iz9t6w_KnctAjCwy-17" value="" style="verticalLabelPosition=bottom;verticalAlign=top;html=1;shape=mxgraph.flowchart.on-page_reference;fontFamily=Times New Roman;fontSize=16;" vertex="1" parent="1">
          <mxGeometry x="376" y="80" width="37.5" height="37.5" as="geometry" />
        </mxCell>
        <mxCell id="vEz5Iz9t6w_KnctAjCwy-18" style="edgeStyle=orthogonalEdgeStyle;rounded=0;orthogonalLoop=1;jettySize=auto;html=1;exitX=0.5;exitY=1;exitDx=0;exitDy=0;exitPerimeter=0;entryX=0.5;entryY=0;entryDx=0;entryDy=0;entryPerimeter=0;fontFamily=Times New Roman;fontSize=16;" edge="1" parent="1" source="vEz5Iz9t6w_KnctAjCwy-17" target="vEz5Iz9t6w_KnctAjCwy-6">
          <mxGeometry relative="1" as="geometry" />
        </mxCell>
        <mxCell id="vEz5Iz9t6w_KnctAjCwy-22" style="edgeStyle=orthogonalEdgeStyle;rounded=0;orthogonalLoop=1;jettySize=auto;html=1;exitX=0.5;exitY=1;exitDx=0;exitDy=0;entryX=0.5;entryY=0;entryDx=0;entryDy=0;entryPerimeter=0;fontFamily=Times New Roman;fontSize=16;" edge="1" parent="1" source="vEz5Iz9t6w_KnctAjCwy-8" target="vEz5Iz9t6w_KnctAjCwy-10">
          <mxGeometry relative="1" as="geometry" />
        </mxCell>
      </root>
    </mxGraphModel>
  </diagram>
</mxfile>
